<?xml version="1.0" encoding="UTF-8" standalone="no"?>
<!-- Created with Inkscape (http://www.inkscape.org/) -->
<svg
   xmlns:svg="http://www.w3.org/2000/svg"
   xmlns="http://www.w3.org/2000/svg"
   xmlns:xlink="http://www.w3.org/1999/xlink"
   version="1.0"
   width="500"
   height="400"
   id="svg2">
  <defs
     id="defs5" />
  <text
     x="36.769554"
     y="-65.27626"
     style="font-size:12px;font-style:normal;font-weight:normal;text-align:end;text-anchor:end;fill:black;fill-opacity:1;stroke:none;stroke-width:1px;stroke-linecap:butt;stroke-linejoin:miter;stroke-opacity:1;font-family:Arial"
     id="text2830"
     xml:space="preserve"><tspan
       x="36.769554"
       y="-65.27626"
       id="tspan2832">⋃</tspan></text>
  <g
     transform="translate(7.232021,9.389123)"
     id="g2871">
    <path
       d="M 531 215.5 A 146 83.5 0 1 1  239,215.5 A 146 83.5 0 1 1  531 215.5 z"
       transform="matrix(1.04574,-0.280293,0.381889,1.425524,-237.6189,-63.08857)"
       style="opacity:1;fill:#008f00;fill-opacity:0.09803922;stroke:#008f00;stroke-width:1.97780299;stroke-linecap:round;stroke-linejoin:round;stroke-miterlimit:4;stroke-dasharray:none;stroke-opacity:1"
       id="path2794" />
    <path
       d="M 531 215.5 A 146 83.5 0 1 1  239,215.5 A 146 83.5 0 1 1  531 215.5 z"
       transform="matrix(1.04574,-0.280293,0.381889,1.425524,-165.9075,43.67319)"
       style="opacity:1;fill:#8f0000;fill-opacity:0.09876541;stroke:#8f0000;stroke-width:1.97780299;stroke-linecap:round;stroke-linejoin:round;stroke-miterlimit:4;stroke-dasharray:none;stroke-opacity:1"
       id="path2796" />
    <path
       d="M 531 215.5 A 146 83.5 0 1 1  239,215.5 A 146 83.5 0 1 1  531 215.5 z"
       transform="matrix(1.04574,-0.280293,0.381889,1.425524,-318.3705,45.73509)"
       style="opacity:1;fill:#0000b0;fill-opacity:0.09803922;stroke:#0000b0;stroke-width:1.97780299;stroke-linecap:round;stroke-linejoin:round;stroke-miterlimit:4;stroke-dasharray:none;stroke-opacity:1"
       id="path2798" />
    <text
       x="259.72287"
       y="70.801079"
       style="font-size:12px;font-style:normal;font-weight:normal;text-align:center;text-anchor:middle;fill:#008f00;fill-opacity:1;stroke:none;stroke-width:1px;stroke-linecap:butt;stroke-linejoin:miter;stroke-opacity:1;font-family:Arial"
       id="text2800"
       xml:space="preserve"><tspan
         x="259.72287"
         y="70.801079"
         style="font-size:32px;text-align:center;text-anchor:middle;fill:#008f00;fill-opacity:1;font-family:Arial"
         id="tspan2802">C</tspan></text>
    <text
       x="403.42151"
       y="270.84799"
       style="font-size:12px;font-style:normal;font-weight:normal;text-align:center;text-anchor:middle;fill:#8f0000;fill-opacity:1;stroke:none;stroke-width:1px;stroke-linecap:butt;stroke-linejoin:miter;stroke-opacity:1;font-family:Arial"
       id="text2804"
       xml:space="preserve"><tspan
         x="403.42151"
         y="270.84799"
         style="font-size:32px;text-align:center;text-anchor:middle;fill:#8f0000;fill-opacity:1;font-family:Arial"
         id="tspan2806">A</tspan></text>
    <text
       x="86.382866"
       y="303.10284"
       style="font-size:12px;font-style:normal;font-weight:normal;text-align:center;text-anchor:middle;fill:#0000b0;fill-opacity:1;stroke:none;stroke-width:1px;stroke-linecap:butt;stroke-linejoin:miter;stroke-opacity:1;font-family:Arial"
       id="text2808"
       xml:space="preserve"><tspan
         x="86.382866"
         y="303.10284"
         style="font-size:32px;text-align:center;text-anchor:middle;fill:#0000b0;fill-opacity:1;font-family:Arial"
         id="tspan2810">B</tspan></text>
    <g
       transform="translate(-6,-3)"
       id="g2866">
      <use
         transform="translate(49.56854,-127.8555)"
         id="use2812"
         x="0"
         y="0"
         width="500"
         height="400"
         xlink:href="#text2808" />
      <use
         transform="translate(-83.2688,104.0556)"
         id="use2818"
         x="0"
         y="0"
         width="500"
         height="400"
         xlink:href="#text2800" />
      <path
         d="M 151.54767,173.9973 L 151.54767,164.67191 C 151.54767,162.0524 153.72662,159.94355 156.43319,159.94355 C 159.13978,159.94355 161.31873,162.0524 161.31873,164.67191 L 161.31873,173.9973"
         style="fill:none;fill-opacity:1;stroke:#4b4b4b;stroke-width:2.50000024;stroke-linecap:square;stroke-linejoin:round;stroke-miterlimit:4;stroke-opacity:1"
         id="rect2838" />
    </g>
    <g
       id="g2861">
      <use
         transform="translate(169.4556,5.68628)"
         id="use2814"
         x="0"
         y="0"
         width="500"
         height="400"
         xlink:href="#text2808" />
      <use
         transform="translate(-188.2031,37.94113)"
         id="use2824"
         x="0"
         y="0"
         width="500"
         height="400"
         xlink:href="#text2804" />
      <use
         transform="translate(79.23977,133.5418)"
         id="use2841"
         x="0"
         y="0"
         width="500"
         height="400"
         xlink:href="#rect2838" />
    </g>
    <g
       transform="translate(0,-7)"
       id="g2849">
      <use
         transform="translate(110.2254,100.0955)"
         id="use2820"
         x="0"
         y="0"
         width="500"
         height="400"
         xlink:href="#text2800" />
      <use
         transform="translate(-74.8598,-99.56084)"
         id="use2826"
         x="0"
         y="0"
         width="500"
         height="400"
         xlink:href="#text2804" />
      <use
         transform="translate(192.8921,-3.96015)"
         id="use2843"
         x="0"
         y="0"
         width="500"
         height="400"
         xlink:href="#rect2838" />
    </g>
    <g
       transform="translate(-12,-9)"
       id="g2854">
      <use
         transform="translate(171.2284,-72.71068)"
         id="use2816"
         x="0"
         y="0"
         width="500"
         height="400"
         xlink:href="#text2808" />
      <use
         transform="translate(37.26472,159.2005)"
         id="use2822"
         x="0"
         y="0"
         width="500"
         height="400"
         xlink:href="#text2800" />
      <use
         transform="translate(-184.7178,-40.45583)"
         id="use2828"
         x="0"
         y="0"
         width="500"
         height="400"
         xlink:href="#text2804" />
      <use
         transform="translate(81.86882,55.14486)"
         id="use2845"
         x="0"
         y="0"
         width="500"
         height="400"
         xlink:href="#rect2838" />
      <use
         transform="translate(121.0967,55.14486)"
         id="use2847"
         x="0"
         y="0"
         width="500"
         height="400"
         xlink:href="#rect2838" />
    </g>
  </g>
</svg>
