<svg width="634.293" height="436.173" viewBox="0 0 475.72 327.13" class="displayed_equation" xmlns="http://www.w3.org/2000/svg" xmlns:xlink="http://www.w3.org/1999/xlink">
  <defs>
    <clipPath id="svg758149689032tikz_00003b">
      <path d="M 1 1 L 143.964844 1 L 143.964844 103 L 1 103 Z M 1 1" />
    </clipPath>
    <clipPath id="svg758149689032tikz_00003c">
      <path d="M 0.71875 0.613281 L 143.964844 0.613281 L 143.964844 103.160156 L 0.71875 103.160156 Z M 0.71875 0.613281" />
    </clipPath>
    <clipPath id="svg758149689032tikz_00003a">
      <path d="M0 0H144V104H0z" />
    </clipPath>
    <g id="svg758149689032tikz_00003j" clip-path="url(#svg758149689032tikz_00003a)">
      <g clip-path="url(#svg758149689032tikz_00003b)">
        <path d="M 102.867188 51.886719 C 102.867188 23.789063 80.089844 1.015625 51.992188 1.015625 C 23.894531 1.015625 1.117188 23.789063 1.117188 51.886719 C 1.117188 79.984375 23.894531 102.761719 51.992188 102.761719 C 80.089844 102.761719 102.867188 79.984375 102.867188 51.886719 Z M 143.566406 51.886719 C 143.566406 23.789063 120.789063 1.015625 92.691406 1.015625 C 64.59375 1.015625 41.816406 23.789063 41.816406 51.886719 C 41.816406 79.984375 64.59375 102.761719 92.691406 102.761719 C 120.789063 102.761719 143.566406 79.984375 143.566406 51.886719 Z M 143.566406 51.886719" fill-rule="evenodd" fill="#fff" />
      </g>
      <g clip-path="url(#svg758149689032tikz_00003c)">
        <path d="M 3888.671875 2362.432813 C 3888.671875 2643.409375 3660.898438 2871.14375 3379.921875 2871.14375 C 3098.945313 2871.14375 2871.171875 2643.409375 2871.171875 2362.432813 C 2871.171875 2081.45625 3098.945313 1853.682813 3379.921875 1853.682813 C 3660.898438 1853.682813 3888.671875 2081.45625 3888.671875 2362.432813 Z M 4295.664063 2362.432813 C 4295.664063 2643.409375 4067.890625 2871.14375 3786.914063 2871.14375 C 3505.9375 2871.14375 3278.164063 2643.409375 3278.164063 2362.432813 C 3278.164063 2081.45625 3505.9375 1853.682813 3786.914063 1853.682813 C 4067.890625 1853.682813 4295.664063 2081.45625 4295.664063 2362.432813 Z M 4295.664063 2362.432813" transform="matrix(.1 0 0 -.1 -286 288.13)" fill="none" stroke-width="7.97" stroke-linecap="round" stroke-linejoin="round" stroke="#000" stroke-miterlimit="10" />
      </g>
    </g>
    <clipPath id="svg758149689032tikz_00003e">
      <path d="M 0.0976563 0.238281 L 204 0.238281 L 204 123 L 0.0976563 123 Z M 0.0976563 0.238281" />
    </clipPath>
    <clipPath id="svg758149689032tikz_00003f">
      <path d="M 0.0976563 0.238281 L 204.390625 0.238281 L 204.390625 123.132813 L 0.0976563 123.132813 Z M 0.0976563 0.238281" />
    </clipPath>
    <clipPath id="svg758149689032tikz_00003d">
      <path d="M0 0H205V124H0z" />
    </clipPath>
    <g id="svg758149689032tikz_00003k" clip-path="url(#svg758149689032tikz_00003d)">
      <g clip-path="url(#svg758149689032tikz_00003e)">
        <path d="M 0.496094 122.734375 L 203.992188 122.734375 L 203.992188 0.636719 L 0.496094 0.636719 Z M 0.496094 122.734375" fill="#fbc04f" fill-opacity=".5" />
      </g>
      <g clip-path="url(#svg758149689032tikz_00003f)">
        <path d="M 1344.960938 123.95625 L 3379.921875 123.95625 L 3379.921875 1344.932813 L 1344.960938 1344.932813 Z M 1344.960938 123.95625" transform="matrix(.1 0 0 -.1 -134 135.13)" fill="none" stroke-width="7.97" stroke-linecap="round" stroke-linejoin="round" stroke="#000" stroke-miterlimit="10" />
      </g>
    </g>
    <clipPath id="svg758149689032tikz_00003h">
      <path d="M 1 0.410156 L 103 0.410156 L 103 102.957031 L 1 102.957031 Z M 1 0.410156" />
    </clipPath>
    <clipPath id="svg758149689032tikz_00003i">
      <path d="M 0.621094 0.410156 L 103.167969 0.410156 L 103.167969 102.957031 L 0.621094 102.957031 Z M 0.621094 0.410156" />
    </clipPath>
    <clipPath id="svg758149689032tikz_00003g">
      <path d="M0 0H104V103H0z" />
    </clipPath>
    <g id="svg758149689032tikz_00003l" clip-path="url(#svg758149689032tikz_00003g)">
      <g clip-path="url(#svg758149689032tikz_00003h)">
        <path d="M 102.769531 51.683594 C 102.769531 23.585938 79.992188 0.8125 51.894531 0.8125 C 23.796875 0.8125 1.019531 23.585938 1.019531 51.683594 C 1.019531 79.78125 23.796875 102.558594 51.894531 102.558594 C 79.992188 102.558594 102.769531 79.78125 102.769531 51.683594 Z M 102.769531 51.683594" fill="#fff" />
      </g>
      <g clip-path="url(#svg758149689032tikz_00003i)">
        <path d="M 2667.695313 734.464063 C 2667.695313 1015.440625 2439.921875 1243.175 2158.945313 1243.175 C 1877.96875 1243.175 1650.195313 1015.440625 1650.195313 734.464063 C 1650.195313 453.4875 1877.96875 225.714063 2158.945313 225.714063 C 2439.921875 225.714063 2667.695313 453.4875 2667.695313 734.464063 Z M 2667.695313 734.464063" transform="matrix(.1 0 0 -.1 -164 125.13)" fill="none" stroke-width="7.97" stroke-linecap="round" stroke-linejoin="round" stroke="#000" stroke-miterlimit="10" />
      </g>
    </g>
  </defs>
  <path d="M 144.671875 90.886719 C 144.671875 62.789063 121.894531 40.015625 93.796875 40.015625 C 65.699219 40.015625 42.921875 62.789063 42.921875 90.886719 C 42.921875 118.984375 65.699219 141.761719 93.796875 141.761719 C 121.894531 141.761719 144.671875 118.984375 144.671875 90.886719 Z M 144.671875 90.886719" fill="#62aadf" fill-opacity=".4" />
  <path d="M 185.371094 90.886719 C 185.371094 62.789063 162.59375 40.015625 134.496094 40.015625 C 106.398438 40.015625 83.621094 62.789063 83.621094 90.886719 C 83.621094 118.984375 106.398438 141.761719 134.496094 141.761719 C 162.59375 141.761719 185.371094 118.984375 185.371094 90.886719 Z M 185.371094 90.886719" fill="#62aadf" fill-opacity=".4" />
  <path d="M 123.984375 1751.925 L 2158.945313 1751.925 L 2158.945313 2972.901563 L 123.984375 2972.901563 Z M 123.984375 1751.925" transform="matrix(.1 0 0 -.1 0 327.13)" fill="none" stroke-width="7.97" stroke-linecap="round" stroke-linejoin="round" stroke="#000" stroke-miterlimit="10" />
  <path d="M 116.765625 92.765625 L 116.765625 91.996094 L 115.628906 91.996094 L 115.628906 87.335938 L 114.949219 87.335938 L 111.546875 92.0625 L 111.546875 92.765625 L 114.636719 92.765625 L 114.636719 94.53125 L 115.628906 94.53125 L 115.628906 92.765625 Z M 114.636719 91.996094 L 112.160156 91.996094 L 112.160156 91.953125 L 114.589844 88.550781 L 114.636719 88.550781 L 114.636719 91.996094" />
  <path d="M 1446.71875 2362.432813 C 1446.71875 2643.409375 1218.945313 2871.14375 937.96875 2871.14375 C 656.992188 2871.14375 429.21875 2643.409375 429.21875 2362.432813 C 429.21875 2081.45625 656.992188 1853.682813 937.96875 1853.682813 C 1218.945313 1853.682813 1446.71875 2081.45625 1446.71875 2362.432813 Z M 1446.71875 2362.432813" transform="matrix(.1 0 0 -.1 0 327.13)" fill="none" stroke-width="7.97" stroke-linecap="round" stroke-linejoin="round" stroke="#000" stroke-miterlimit="10" />
  <path d="M 67.875 92.746094 L 67.554688 92.746094 C 67.296875 93.414063 67.152344 93.648438 66.558594 93.648438 L 65.007813 93.648438 L 64.226563 93.683594 L 64.226563 93.628906 L 65.703125 92.230469 C 66.882813 91.039063 67.519531 90.269531 67.519531 89.273438 C 67.519531 88.101563 66.636719 87.347656 65.378906 87.347656 C 64.296875 87.347656 63.539063 87.972656 63.191406 89.050781 L 63.460938 89.164063 C 63.871094 88.328125 64.363281 88.070313 65.085938 88.070313 C 65.945313 88.070313 66.480469 88.605469 66.480469 89.441406 C 66.480469 90.613281 65.921875 91.316406 64.820313 92.453125 L 63.125 94.148438 L 63.125 94.53125 L 67.519531 94.53125 L 67.875 92.746094" />
  <path d="M 1853.710938 2362.432813 C 1853.710938 2643.409375 1625.9375 2871.14375 1344.960938 2871.14375 C 1063.984375 2871.14375 836.210938 2643.409375 836.210938 2362.432813 C 836.210938 2081.45625 1063.984375 1853.682813 1344.960938 1853.682813 C 1625.9375 1853.682813 1853.710938 2081.45625 1853.710938 2362.432813 Z M 1853.710938 2362.432813" transform="matrix(.1 0 0 -.1 0 327.13)" fill="none" stroke-width="7.97" stroke-linecap="round" stroke-linejoin="round" stroke="#000" stroke-miterlimit="10" />
  <path d="M161.058594 88.875C161.4375 88.28125 161.851563 87.972656 162.519531 87.972656 163.214844 87.972656 163.660156 88.351563 163.660156 89.007813 163.660156 89.910156 162.867188 90.523438 162.109375 90.523438L161.898438 90.523438 161.898438 90.949219 162.117188 90.949219C163.191406 90.949219 164.140625 91.609375 164.140625 92.601563 164.140625 93.695313 163.457031 94.015625 162.753906 94.015625 162.488281 94.015625 162.332031 93.972656 161.851563 93.726563 161.460938 93.527344 161.371094 93.472656 161.195313 93.472656 160.902344 93.472656 160.757813 93.726563 160.757813 93.960938 160.757813 94.253906 161.003906 94.574219 162.007813 94.574219 163.636719 94.574219 165.054688 93.792969 165.054688 92.265625 165.054688 91.273438 164.304688 90.683594 163.414063 90.402344L163.414063 90.367188C164.117188 89.921875 164.617188 89.511719 164.617188 88.742188 164.617188 87.890625 163.960938 87.246094 162.820313 87.246094 161.90625 87.246094 161.214844 87.757813 160.804688 88.726563L161.058594 88.875M55.578125 44.3125C54.832031 44.992188 54.050781 45.328125 53.179688 45.328125 51.710938 45.328125 51.015625 44.535156 51.015625 43.039063 51.015625 40.585938 52.46875 38.933594 54.1875 38.933594 55.289063 38.933594 55.9375 39.539063 55.882813 41.019531L56.25 41.019531 56.773438 38.464844 56.449219 38.464844C56.273438 38.710938 56.160156 38.867188 55.980469 38.867188 55.703125 38.867188 55.414063 38.453125 54.285156 38.453125 52.023438 38.453125 49.921875 40.183594 49.921875 43.320313 49.921875 44.792969 50.636719 46.054688 52.65625 46.054688 54.0625 46.054688 55.023438 45.417969 55.78125 44.523438L55.578125 44.3125M172.617188 38.699219L172.550781 39.035156C173.351563 39.035156 173.578125 39.15625 173.421875 39.972656L172.449219 44.648438C172.269531 45.550781 172.070313 45.695313 171.222656 45.695313L171.15625 46.03125 173.988281 46.03125C176.832031 46.03125 178.886719 44.746094 178.886719 41.589844 178.886719 39.847656 177.839844 38.699219 175.515625 38.699219zM174.578125 39.179688C174.78125 39.15625 174.882813 39.148438 175.070313 39.148438 177.269531 39.148438 177.769531 40.328125 177.769531 41.691406 177.769531 44.445313 176.386719 45.597656 173.988281 45.597656 173.699219 45.597656 173.476563 45.597656 173.265625 45.5625L174.578125 39.179688M215.410156 20.253906L215.789063 18.089844 215.523438 18.089844C215.410156 18.324219 215.277344 18.414063 215.089844 18.414063 214.84375 18.414063 214.585938 18.089844 213.617188 18.089844 212.367188 18.089844 211.183594 18.789063 211.183594 20.085938 211.183594 21.113281 211.796875 21.515625 212.53125 21.980469 213.324219 22.484375 214.085938 22.941406 214.070313 23.925781 214.0625 24.78125 213.359375 25.195313 212.433594 25.195313 211.304688 25.207031 210.925781 24.828125 210.828125 23.289063L210.515625 23.289063 210.046875 25.695313 210.378906 25.695313C210.425781 25.472656 210.59375 25.328125 210.746094 25.328125 211.003906 25.328125 211.339844 25.664063 212.5 25.664063 213.882813 25.664063 215.066406 24.816406 215.066406 23.398438 215.066406 22.328125 214.304688 21.882813 213.480469 21.359375 212.765625 20.898438 212.109375 20.441406 212.109375 19.761719 212.109375 18.960938 212.679688 18.492188 213.601563 18.492188 214.730469 18.492188 215.042969 19.023438 215.089844 20.253906L215.410156 20.253906" />
  <path d="M106.378906 21.613281C105.632813 22.292969 104.851563 22.628906 103.980469 22.628906 102.507813 22.628906 101.816406 21.835938 101.816406 20.339844 101.816406 17.886719 103.265625 16.234375 104.984375 16.234375 106.089844 16.234375 106.738281 16.839844 106.679688 18.320313L107.050781 18.320313 107.574219 15.765625 107.25 15.765625C107.070313 16.011719 106.960938 16.167969 106.78125 16.167969 106.503906 16.167969 106.214844 15.753906 105.085938 15.753906 102.820313 15.753906 100.722656 17.484375 100.722656 20.617188 100.722656 22.09375 101.4375 23.351563 103.457031 23.351563 104.863281 23.351563 105.820313 22.71875 106.582031 21.824219L106.378906 21.613281M117.027344 17.105469L116.28125 17.105469 116.28125 20.484375C116.28125 21.789063 115.253906 22.828125 114.035156 22.828125 112.796875 22.828125 111.792969 21.78125 111.792969 20.472656L111.792969 17.105469 111.046875 17.105469 111.046875 20.53125C111.046875 22.339844 112.339844 23.585938 114.035156 23.585938 115.734375 23.585938 117.027344 22.316406 117.027344 20.484375L117.027344 17.105469M121.417969 15.898438L121.351563 16.234375C122.152344 16.234375 122.378906 16.359375 122.21875 17.171875L121.246094 21.847656C121.070313 22.75 120.871094 22.894531 120.023438 22.894531L119.953125 23.230469 122.789063 23.230469C125.632813 23.230469 127.6875 21.945313 127.6875 18.789063 127.6875 17.050781 126.636719 15.898438 124.316406 15.898438zM123.378906 16.378906C123.582031 16.359375 123.679688 16.347656 123.871094 16.347656 126.070313 16.347656 126.570313 17.527344 126.570313 18.890625 126.570313 21.644531 125.1875 22.796875 122.789063 22.796875 122.496094 22.796875 122.273438 22.796875 122.0625 22.761719L123.378906 16.378906" fill="#55a4e0" />
  <path d="M 204.453125 137.628906 L 204.453125 137.316406 C 203.425781 137.316406 203.015625 137.117188 203.015625 136.570313 L 203.015625 130.503906 L 202.691406 130.503906 L 200.523438 131.113281 L 200.523438 131.484375 C 200.871094 131.371094 201.441406 131.304688 201.664063 131.304688 C 201.941406 131.304688 202.03125 131.460938 202.03125 131.851563 L 202.03125 136.570313 C 202.03125 137.128906 201.640625 137.316406 200.59375 137.316406 L 200.59375 137.628906 L 204.453125 137.628906" />
  <path d="M 2565.9375 1751.925 L 4600.898438 1751.925 L 4600.898438 2972.901563 L 2565.9375 2972.901563 Z M 2565.9375 1751.925" transform="matrix(.1 0 0 -.1 0 327.13)" fill="none" stroke-width="7.97" stroke-linecap="round" stroke-linejoin="round" stroke="#000" stroke-miterlimit="10" />
  <path d="M350.578125 21.613281C349.832031 22.292969 349.050781 22.628906 348.179688 22.628906 346.710938 22.628906 346.015625 21.835938 346.015625 20.339844 346.015625 17.886719 347.46875 16.234375 349.1875 16.234375 350.289063 16.234375 350.9375 16.839844 350.882813 18.320313L351.25 18.320313 351.773438 15.765625 351.449219 15.765625C351.273438 16.011719 351.160156 16.167969 350.980469 16.167969 350.703125 16.167969 350.414063 15.753906 349.285156 15.753906 347.023438 15.753906 344.921875 17.484375 344.921875 20.617188 344.921875 22.09375 345.636719 23.351563 347.65625 23.351563 349.0625 23.351563 350.023438 22.71875 350.78125 21.824219L350.578125 21.613281M361.226563 23.585938L361.226563 20.207031C361.226563 18.378906 359.933594 17.105469 358.234375 17.105469 356.539063 17.105469 355.246094 18.355469 355.246094 20.175781L355.246094 23.585938 355.992188 23.585938 355.992188 20.21875C355.992188 18.914063 356.996094 17.863281 358.234375 17.863281 359.453125 17.863281 360.480469 18.902344 360.480469 20.207031L360.480469 23.585938 361.226563 23.585938M365.617188 15.898438L365.550781 16.234375C366.351563 16.234375 366.578125 16.359375 366.421875 17.171875L365.449219 21.847656C365.269531 22.75 365.070313 22.894531 364.222656 22.894531L364.15625 23.230469 366.988281 23.230469C369.832031 23.230469 371.886719 21.945313 371.886719 18.789063 371.886719 17.050781 370.839844 15.898438 368.515625 15.898438zM367.578125 16.378906C367.78125 16.359375 367.882813 16.347656 368.070313 16.347656 370.269531 16.347656 370.769531 17.527344 370.769531 18.890625 370.769531 21.644531 369.386719 22.796875 366.988281 22.796875 366.699219 22.796875 366.476563 22.796875 366.265625 22.761719L367.578125 16.378906" fill="#e14b3b" />
  <path d="M448.652344 137.628906L448.652344 137.316406C447.628906 137.316406 447.214844 137.117188 447.214844 136.570313L447.214844 130.503906 446.890625 130.503906 444.726563 131.113281 444.726563 131.484375C445.070313 131.371094 445.640625 131.304688 445.863281 131.304688 446.140625 131.304688 446.230469 131.460938 446.230469 131.851563L446.230469 136.570313C446.230469 137.128906 445.839844 137.316406 444.792969 137.316406L444.792969 137.628906 448.652344 137.628906M299.78125 44.3125C299.03125 44.992188 298.253906 45.328125 297.382813 45.328125 295.910156 45.328125 295.21875 44.535156 295.21875 43.039063 295.21875 40.585938 296.667969 38.933594 298.386719 38.933594 299.492188 38.933594 300.136719 39.539063 300.082031 41.019531L300.449219 41.019531 300.972656 38.464844 300.648438 38.464844C300.472656 38.710938 300.359375 38.867188 300.179688 38.867188 299.902344 38.867188 299.613281 38.453125 298.484375 38.453125 296.222656 38.453125 294.121094 40.183594 294.121094 43.320313 294.121094 44.792969 294.839844 46.054688 296.859375 46.054688 298.261719 46.054688 299.222656 45.417969 299.980469 44.523438L299.78125 44.3125M416.816406 38.699219L416.75 39.035156C417.554688 39.035156 417.777344 39.15625 417.621094 39.972656L416.648438 44.648438C416.46875 45.550781 416.269531 45.695313 415.421875 45.695313L415.355469 46.03125 418.1875 46.03125C421.03125 46.03125 423.085938 44.746094 423.085938 41.589844 423.085938 39.847656 422.039063 38.699219 419.71875 38.699219zM418.78125 39.179688C418.980469 39.15625 419.082031 39.148438 419.269531 39.148438 421.46875 39.148438 421.96875 40.328125 421.96875 41.691406 421.96875 44.445313 420.589844 45.597656 418.1875 45.597656 417.898438 45.597656 417.675781 45.597656 417.464844 45.5625L418.78125 39.179688M459.511719 20.253906L459.890625 18.089844 459.621094 18.089844C459.511719 18.324219 459.378906 18.414063 459.1875 18.414063 458.941406 18.414063 458.6875 18.089844 457.714844 18.089844 456.464844 18.089844 455.28125 18.789063 455.28125 20.085938 455.28125 21.113281 455.898438 21.515625 456.632813 21.980469 457.425781 22.484375 458.183594 22.941406 458.171875 23.925781 458.160156 24.78125 457.457031 25.195313 456.53125 25.195313 455.40625 25.207031 455.027344 24.828125 454.925781 23.289063L454.613281 23.289063 454.144531 25.695313 454.480469 25.695313C454.523438 25.472656 454.691406 25.328125 454.847656 25.328125 455.105469 25.328125 455.4375 25.664063 456.601563 25.664063 457.984375 25.664063 459.164063 24.816406 459.164063 23.398438 459.164063 22.328125 458.40625 21.882813 457.582031 21.359375 456.867188 20.898438 456.210938 20.441406 456.210938 19.761719 456.210938 18.960938 456.777344 18.492188 457.703125 18.492188 458.832031 18.492188 459.144531 19.023438 459.1875 20.253906L459.511719 20.253906" />
  <path d="M 388.867188 90.886719 C 388.867188 62.789063 366.089844 40.015625 337.992188 40.015625 C 309.894531 40.015625 287.117188 62.789063 287.117188 90.886719 C 287.117188 118.984375 309.894531 141.761719 337.992188 141.761719 C 366.089844 141.761719 388.867188 118.984375 388.867188 90.886719 Z M 388.867188 90.886719" fill="#f6b0ab" />
  <use xlink:href="#svg758149689032tikz_00003j" transform="translate(286 39)" />
  <path d="M312.078125 92.746094L311.753906 92.746094C311.496094 93.414063 311.351563 93.648438 310.757813 93.648438L309.210938 93.648438 308.429688 93.683594 308.429688 93.628906 309.902344 92.230469C311.085938 91.039063 311.71875 90.269531 311.71875 89.273438 311.71875 88.101563 310.839844 87.347656 309.578125 87.347656 308.496094 87.347656 307.738281 87.972656 307.390625 89.050781L307.660156 89.164063C308.070313 88.328125 308.5625 88.070313 309.289063 88.070313 310.148438 88.070313 310.679688 88.605469 310.679688 89.441406 310.679688 90.613281 310.121094 91.316406 309.019531 92.453125L307.324219 94.148438 307.324219 94.53125 311.71875 94.53125 312.078125 92.746094M405.257813 88.875C405.640625 88.28125 406.050781 87.972656 406.71875 87.972656 407.414063 87.972656 407.859375 88.351563 407.859375 89.007813 407.859375 89.910156 407.066406 90.523438 406.308594 90.523438L406.097656 90.523438 406.097656 90.949219 406.320313 90.949219C407.390625 90.949219 408.339844 91.609375 408.339844 92.601563 408.339844 93.695313 407.65625 94.015625 406.953125 94.015625 406.6875 94.015625 406.53125 93.972656 406.050781 93.726563 405.660156 93.527344 405.570313 93.472656 405.394531 93.472656 405.101563 93.472656 404.957031 93.726563 404.957031 93.960938 404.957031 94.253906 405.203125 94.574219 406.207031 94.574219 407.835938 94.574219 409.253906 93.792969 409.253906 92.265625 409.253906 91.273438 408.507813 90.683594 407.613281 90.402344L407.613281 90.367188C408.316406 89.921875 408.820313 89.511719 408.820313 88.742188 408.820313 87.890625 408.160156 87.246094 407.023438 87.246094 406.109375 87.246094 405.414063 87.757813 405.003906 88.726563L405.257813 88.875M360.964844 92.765625L360.964844 91.996094 359.828125 91.996094 359.828125 87.335938 359.148438 87.335938 355.746094 92.0625 355.746094 92.765625 358.835938 92.765625 358.835938 94.53125 359.828125 94.53125 359.828125 92.765625zM358.835938 91.996094L356.359375 91.996094 356.359375 91.953125 358.789063 88.550781 358.835938 88.550781 358.835938 91.996094" />
  <use xlink:href="#svg758149689032tikz_00003k" transform="translate(134 192)" />
  <use xlink:href="#svg758149689032tikz_00003l" transform="translate(164 202)" />
  <path d="M 189.976563 255.546875 L 189.652344 255.546875 C 189.398438 256.214844 189.253906 256.449219 188.660156 256.449219 L 187.109375 256.449219 L 186.328125 256.480469 L 186.328125 256.425781 L 187.800781 255.03125 C 188.984375 253.835938 189.617188 253.070313 189.617188 252.074219 C 189.617188 250.902344 188.738281 250.144531 187.476563 250.144531 C 186.394531 250.144531 185.636719 250.769531 185.289063 251.851563 L 185.558594 251.964844 C 185.972656 251.125 186.464844 250.871094 187.1875 250.871094 C 188.046875 250.871094 188.582031 251.40625 188.582031 252.242188 C 188.582031 253.414063 188.023438 254.117188 186.921875 255.253906 L 185.222656 256.949219 L 185.222656 257.328125 L 189.617188 257.328125 L 189.976563 255.546875" />
  <path d="M 3074.6875 734.464063 C 3074.6875 1015.440625 2846.914063 1243.175 2565.9375 1243.175 C 2284.960938 1243.175 2057.1875 1015.440625 2057.1875 734.464063 C 2057.1875 453.4875 2284.960938 225.714063 2565.9375 225.714063 C 2846.914063 225.714063 3074.6875 453.4875 3074.6875 734.464063 Z M 3074.6875 734.464063" transform="matrix(.1 0 0 -.1 0 327.13)" fill="none" stroke-width="7.97" stroke-linecap="round" stroke-linejoin="round" stroke="#000" stroke-miterlimit="10" />
  <path d="M283.160156 251.671875C283.539063 251.082031 283.953125 250.769531 284.621094 250.769531 285.3125 250.769531 285.757813 251.148438 285.757813 251.808594 285.757813 252.710938 284.96875 253.324219 284.207031 253.324219L283.996094 253.324219 283.996094 253.75 284.21875 253.75C285.289063 253.75 286.238281 254.40625 286.238281 255.398438 286.238281 256.492188 285.558594 256.816406 284.855469 256.816406 284.589844 256.816406 284.429688 256.773438 283.953125 256.527344 283.5625 256.328125 283.472656 256.269531 283.292969 256.269531 283.003906 256.269531 282.859375 256.527344 282.859375 256.761719 282.859375 257.050781 283.101563 257.375 284.109375 257.375 285.734375 257.375 287.152344 256.59375 287.152344 255.066406 287.152344 254.070313 286.40625 253.480469 285.515625 253.203125L285.515625 253.167969C286.214844 252.722656 286.71875 252.308594 286.71875 251.539063 286.71875 250.691406 286.058594 250.046875 284.921875 250.046875 284.007813 250.046875 283.316406 250.558594 282.902344 251.527344L283.160156 251.671875M238.867188 255.566406L238.867188 254.796875 237.726563 254.796875 237.726563 250.132813 237.046875 250.132813 233.644531 254.863281 233.644531 255.566406 236.734375 255.566406 236.734375 257.328125 237.726563 257.328125 237.726563 255.566406zM236.734375 254.796875L234.257813 254.796875 234.257813 254.753906 236.691406 251.351563 236.734375 251.351563 236.734375 254.796875M177.679688 207.113281C176.933594 207.792969 176.152344 208.128906 175.28125 208.128906 173.808594 208.128906 173.117188 207.335938 173.117188 205.839844 173.117188 203.386719 174.566406 201.734375 176.285156 201.734375 177.390625 201.734375 178.039063 202.339844 177.980469 203.820313L178.351563 203.820313 178.871094 201.265625 178.550781 201.265625C178.371094 201.511719 178.261719 201.667969 178.082031 201.667969 177.804688 201.667969 177.511719 201.253906 176.386719 201.253906 174.121094 201.253906 172.023438 202.984375 172.023438 206.117188 172.023438 207.59375 172.738281 208.851563 174.757813 208.851563 176.164063 208.851563 177.121094 208.21875 177.882813 207.324219L177.679688 207.113281M294.71875 201.5L294.648438 201.835938C295.453125 201.835938 295.675781 201.957031 295.519531 202.773438L294.546875 207.445313C294.371094 208.351563 294.171875 208.496094 293.320313 208.496094L293.253906 208.828125 296.089844 208.828125C298.933594 208.828125 300.984375 207.546875 300.984375 204.390625 300.984375 202.648438 299.9375 201.5 297.617188 201.5zM296.679688 201.980469C296.882813 201.957031 296.980469 201.945313 297.171875 201.945313 299.367188 201.945313 299.871094 203.128906 299.871094 204.492188 299.871094 207.246094 298.488281 208.394531 296.089844 208.394531 295.796875 208.394531 295.574219 208.394531 295.363281 208.359375L296.679688 201.980469M337.410156 183.054688L337.789063 180.890625 337.523438 180.890625C337.410156 181.125 337.277344 181.214844 337.089844 181.214844 336.84375 181.214844 336.585938 180.890625 335.617188 180.890625 334.367188 180.890625 333.183594 181.589844 333.183594 182.886719 333.183594 183.914063 333.796875 184.3125 334.53125 184.78125 335.324219 185.285156 336.085938 185.742188 336.070313 186.722656 336.0625 187.582031 335.359375 187.996094 334.433594 187.996094 333.304688 188.007813 332.925781 187.628906 332.828125 186.089844L332.515625 186.089844 332.046875 188.496094 332.378906 188.496094C332.425781 188.273438 332.59375 188.128906 332.746094 188.128906 333.003906 188.128906 333.339844 188.464844 334.5 188.464844 335.882813 188.464844 337.066406 187.617188 337.066406 186.199219 337.066406 185.128906 336.304688 184.683594 335.480469 184.15625 334.765625 183.699219 334.109375 183.242188 334.109375 182.5625 334.109375 181.761719 334.679688 181.289063 335.601563 181.289063 336.730469 181.289063 337.042969 181.824219 337.089844 183.054688L337.410156 183.054688" />
  <path d="M236.78125 184.914063C236.03125 185.59375 235.253906 185.925781 234.382813 185.925781 232.910156 185.925781 232.21875 185.136719 232.21875 183.640625 232.21875 181.1875 233.667969 179.535156 235.386719 179.535156 236.492188 179.535156 237.136719 180.136719 237.082031 181.621094L237.449219 181.621094 237.972656 179.066406 237.648438 179.066406C237.472656 179.3125 237.359375 179.46875 237.179688 179.46875 236.902344 179.46875 236.613281 179.054688 235.484375 179.054688 233.222656 179.054688 231.121094 180.785156 231.121094 183.917969 231.121094 185.390625 231.839844 186.652344 233.859375 186.652344 235.261719 186.652344 236.222656 186.015625 236.980469 185.125L236.78125 184.914063M239.34375 181.765625C239.738281 181.042969 240.535156 179.4375 240.675781 179.070313 240.707031 178.992188 240.738281 178.84375 240.738281 178.765625 240.738281 178.453125 240.527344 178.320313 240.285156 178.320313 240.082031 178.320313 239.886719 178.386719 239.777344 178.714844 239.660156 179.085938 239.242188 180.878906 239.070313 181.65625L239.34375 181.765625" fill="#f3a203" />
  <path d="M 326.554688 300.429688 L 326.554688 300.117188 C 325.527344 300.117188 325.113281 299.917969 325.113281 299.371094 L 325.113281 293.300781 L 324.789063 293.300781 L 322.625 293.914063 L 322.625 294.28125 C 322.972656 294.171875 323.539063 294.105469 323.765625 294.105469 C 324.042969 294.105469 324.132813 294.261719 324.132813 294.648438 L 324.132813 299.371094 C 324.132813 299.929688 323.742188 300.117188 322.691406 300.117188 L 322.691406 300.429688 L 326.554688 300.429688" />
</svg>